<?xml version="1.0" standalone="no"?>
<!DOCTYPE svg PUBLIC "-//W3C//DTD SVG 20010904//EN"
 "http://www.w3.org/TR/2001/REC-SVG-20010904/DTD/svg10.dtd">
<svg version="1.0" xmlns="http://www.w3.org/2000/svg"
 width="198.000000pt" height="200.000000pt" viewBox="0 0 198.000000 200.000000"
 preserveAspectRatio="xMidYMid meet">

<g transform="translate(0.000000,200.000000) scale(0.100000,-0.100000)"
fill="#000000" stroke="none">
<path d="M654 1925 c-148 -32 -272 -104 -387 -224 -135 -141 -196 -285 -204
-482 -4 -88 -2 -135 11 -193 66 -295 268 -501 576 -587 77 -22 272 -17 363 9
92 26 195 76 261 127 l49 37 48 -48 48 -47 -25 -33 c-20 -25 -23 -37 -15 -51
5 -10 90 -98 188 -196 l179 -177 46 0 c60 0 108 33 127 86 27 78 18 93 -174
284 -96 96 -181 177 -189 182 -8 5 -24 0 -41 -14 l-27 -21 -50 50 -49 50 23
29 c196 237 221 601 62 866 -54 90 -192 224 -285 276 -146 82 -366 114 -535
77z m359 -99 c111 -34 200 -91 289 -184 393 -411 126 -1092 -442 -1129 -141
-9 -333 43 -418 113 l-23 19 59 0 c79 0 131 34 170 112 l29 56 327 77 c349 82
349 82 362 148 7 36 5 49 -33 210 -43 183 -56 190 -268 139 l-140 -34 -13 28
c-6 16 -16 29 -20 29 -4 0 -13 20 -20 44 -32 122 -214 169 -348 91 -93 -54
-121 -171 -69 -284 22 -46 24 -59 15 -86 -9 -26 -5 -57 24 -175 38 -163 58
-194 119 -192 31 1 34 -1 29 -20 -10 -39 -94 -116 -135 -123 -76 -15 -176 35
-213 106 -27 52 -14 129 33 199 29 44 31 76 2 40 -34 -43 -61 -102 -68 -149
l-6 -46 -22 35 c-12 19 -34 71 -49 115 -25 72 -28 93 -28 215 0 121 3 144 27
217 67 200 225 355 432 425 69 24 96 28 200 28 99 0 134 -4 198 -24z m-256
-281 c51 -22 70 -40 89 -92 17 -43 16 -44 -3 -58 -14 -10 -19 -22 -16 -39 5
-23 1 -25 -134 -56 -76 -18 -153 -41 -170 -51 l-33 -18 -15 29 c-20 38 -29
109 -21 154 9 46 59 104 111 127 50 23 142 24 192 4z m513 -170 c12 -14 80
-282 80 -315 0 -49 -23 -58 -350 -135 -173 -40 -315 -73 -316 -72 -1 1 -4 23
-8 48 l-7 45 38 10 c35 8 38 12 38 43 0 29 4 36 25 41 20 5 25 12 23 35 -4 49
-9 54 -46 48 -32 -5 -34 -3 -40 26 -5 23 -12 31 -27 31 -41 0 -61 -19 -58 -53
5 -52 -23 -45 -71 18 -23 31 -41 61 -39 67 4 12 668 174 719 177 15 0 32 -6
39 -14z m-736 -242 c21 -27 36 -57 36 -74 0 -42 10 -59 35 -59 19 0 26 -9 39
-47 9 -26 16 -61 16 -79 0 -28 -4 -32 -32 -37 -60 -9 -71 7 -106 159 -29 127
-38 184 -28 184 2 0 20 -21 40 -47z m1164 -776 c139 -141 157 -168 130 -195
-28 -28 -55 -10 -200 135 l-148 147 27 28 c15 15 32 28 38 28 6 0 75 -64 153
-143z"/>
<path d="M1196 1258 c-20 -28 -4 -58 29 -58 35 0 52 36 29 61 -22 25 -39 24
-58 -3z m49 -18 c0 -26 -20 -34 -42 -17 -9 7 -10 14 -2 29 14 27 44 19 44 -12z"/>
<path d="M1231 1234 c0 -11 3 -14 6 -6 3 7 2 16 -1 19 -3 4 -6 -2 -5 -13z"/>
<path d="M1076 1231 c-32 -36 3 -83 45 -61 25 14 25 56 0 70 -25 13 -25 13
-45 -9z"/>
<path d="M981 1141 c-14 -4 -27 -13 -29 -20 -4 -11 2 -12 24 -7 33 8 50 21 37
28 -4 3 -19 2 -32 -1z"/>
<path d="M1162 1138 c-29 -29 -2 -72 40 -66 17 2 24 11 26 32 5 41 -37 63 -66
34z m56 -22 c5 -25 -12 -39 -37 -31 -20 6 -28 34 -14 49 13 13 48 1 51 -18z"/>
<path d="M861 1111 c-20 -13 3 -23 34 -15 14 3 25 10 25 15 0 11 -41 11 -59 0z"/>
</g>
</svg>
